2021/08/09 11:43:04 Download https://tbs-video-cdn.tver.jp/media/v1/hls/v4/aes128/4031511847001/5ba33e88-2de3-4361-b8a2-472249944fbd/a0e62dbe-72ba-4187-a700-47c810cfd194/c7056166-f567-4b7b-b29f-1327e0b49b97/5x/segment0.ts to c:\work\work/segment0.ts
2021/08/09 11:43:05 Download https://tbs-video-cdn.tver.jp/media/v1/hls/v4/aes128/4031511847001/5ba33e88-2de3-4361-b8a2-472249944fbd/a0e62dbe-72ba-4187-a700-47c810cfd194/c7056166-f567-4b7b-b29f-1327e0b49b97/5x/segment1.ts to c:\work\work/segment1.ts
2021/08/09 11:43:05 Download https://tbs-video-cdn.tver.jp/media/v1/hls/v4/aes128/4031511847001/5ba33e88-2de3-4361-b8a2-472249944fbd/a0e62dbe-72ba-4187-a700-47c810cfd194/c7056166-f567-4b7b-b29f-1327e0b49b97/5x/segment2.ts to c:\work\work/segment2.ts
2021/08/09 11:43:05 Download https://tbs-video-cdn.tver.jp/media/v1/hls/v4/aes128/4031511847001/5ba33e88-2de3-4361-b8a2-472249944fbd/a0e62dbe-72ba-4187-a700-47c810cfd194/c7056166-f567-4b7b-b29f-1327e0b49b97/5x/segment3.ts to c:\work\work/segment3.ts
2021/08/09 11:43:06 Download https://tbs-video-cdn.tver.jp/media/v1/hls/v4/aes128/4031511847001/5ba33e88-2de3-4361-b8a2-472249944fbd/a0e62dbe-72ba-4187-a700-47c810cfd194/c7056166-f567-4b7b-b29f-1327e0b49b97/5x/segment4.ts to c:\work\work/segment4.ts
2021/08/09 11:43:06 Download https://tbs-video-cdn.tver.jp/media/v1/hls/v4/aes128/4031511847001/5ba33e88-2de3-4361-b8a2-472249944fbd/a0e62dbe-72ba-4187-a700-47c810cfd194/c7056166-f567-4b7b-b29f-1327e0b49b97/5x/segment5.ts to c:\work\work/segment5.ts
2021/08/09 11:43:06 Download https://tbs-video-cdn.tver.jp/media/v1/hls/v4/aes128/4031511847001/5ba33e88-2de3-4361-b8a2-472249944fbd/a0e62dbe-72ba-4187-a700-47c810cfd194/c7056166-f567-4b7b-b29f-1327e0b49b97/5x/segment6.ts to c:\work\work/segment6.ts
2021/08/09 11:43:06 Download https://tbs-video-cdn.tver.jp/media/v1/hls/v4/aes128/4031511847001/5ba33e88-2de3-4361-b8a2-472249944fbd/a0e62dbe-72ba-4187-a700-47c810cfd194/c7056166-f567-4b7b-b29f-1327e0b49b97/5x/segment7.ts to c:\work\work/segment7.ts
2021/08/09 11:43:07 Download https://tbs-video-cdn.tver.jp/media/v1/hls/v4/aes128/4031511847001/5ba33e88-2de3-4361-b8a2-472249944fbd/a0e62dbe-72ba-4187-a700-47c810cfd194/c7056166-f567-4b7b-b29f-1327e0b49b97/5x/segment8.ts to c:\work\work/segment8.ts
2021/08/09 11:43:07 Download https://tbs-video-cdn.tver.jp/media/v1/hls/v4/aes128/4031511847001/5ba33e88-2de3-4361-b8a2-472249944fbd/a0e62dbe-72ba-4187-a700-47c810cfd194/c7056166-f567-4b7b-b29f-1327e0b49b97/5x/segment9.ts to c:\work\work/segment9.ts
2021/08/09 11:43:07 Download https://tbs-video-cdn.tver.jp/media/v1/hls/v4/aes128/4031511847001/5ba33e88-2de3-4361-b8a2-472249944fbd/a0e62dbe-72ba-4187-a700-47c810cfd194/c7056166-f567-4b7b-b29f-1327e0b49b97/5x/segment10.ts to c:\work\work/segment10.ts
2021/08/09 11:43:08 Download https://tbs-video-cdn.tver.jp/media/v1/hls/v4/aes128/4031511847001/5ba33e88-2de3-4361-b8a2-472249944fbd/a0e62dbe-72ba-4187-a700-47c810cfd194/c7056166-f567-4b7b-b29f-1327e0b49b97/5x/segment11.ts to c:\work\work/segment11.ts
2021/08/09 11:43:08 Download https://tbs-video-cdn.tver.jp/media/v1/hls/v4/aes128/4031511847001/5ba33e88-2de3-4361-b8a2-472249944fbd/a0e62dbe-72ba-4187-a700-47c810cfd194/c7056166-f567-4b7b-b29f-1327e0b49b97/5x/segment12.ts to c:\work\work/segment12.ts
2021/08/09 11:43:08 Download https://tbs-video-cdn.tver.jp/media/v1/hls/v4/aes128/4031511847001/5ba33e88-2de3-4361-b8a2-472249944fbd/a0e62dbe-72ba-4187-a700-47c810cfd194/c7056166-f567-4b7b-b29f-1327e0b49b97/5x/segment13.ts to c:\work\work/segment13.ts
2021/08/09 11:43:09 Download https://tbs-video-cdn.tver.jp/media/v1/hls/v4/aes128/4031511847001/5ba33e88-2de3-4361-b8a2-472249944fbd/a0e62dbe-72ba-4187-a700-47c810cfd194/c7056166-f567-4b7b-b29f-1327e0b49b97/5x/segment14.ts to c:\work\work/segment14.ts
2021/08/09 11:43:09 Download https://tbs-video-cdn.tver.jp/media/v1/hls/v4/aes128/4031511847001/5ba33e88-2de3-4361-b8a2-472249944fbd/a0e62dbe-72ba-4187-a700-47c810cfd194/c7056166-f567-4b7b-b29f-1327e0b49b97/5x/segment15.ts to c:\work\work/segment15.ts
2021/08/09 11:43:09 Download https://tbs-video-cdn.tver.jp/media/v1/hls/v4/aes128/4031511847001/5ba33e88-2de3-4361-b8a2-472249944fbd/a0e62dbe-72ba-4187-a700-47c810cfd194/c7056166-f567-4b7b-b29f-1327e0b49b97/5x/segment16.ts to c:\work\work/segment16.ts
2021/08/09 11:43:09 Download https://tbs-video-cdn.tver.jp/media/v1/hls/v4/aes128/4031511847001/5ba33e88-2de3-4361-b8a2-472249944fbd/a0e62dbe-72ba-4187-a700-47c810cfd194/c7056166-f567-4b7b-b29f-1327e0b49b97/5x/segment17.ts to c:\work\work/segment17.ts
2021/08/09 11:43:09 Download https://tbs-video-cdn.tver.jp/media/v1/hls/v4/aes128/4031511847001/5ba33e88-2de3-4361-b8a2-472249944fbd/a0e62dbe-72ba-4187-a700-47c810cfd194/c7056166-f567-4b7b-b29f-1327e0b49b97/5x/segment18.ts to c:\work\work/segment18.ts
2021/08/09 11:43:09 Download https://tbs-video-cdn.tver.jp/media/v1/hls/v4/aes128/4031511847001/5ba33e88-2de3-4361-b8a2-472249944fbd/a0e62dbe-72ba-4187-a700-47c810cfd194/c7056166-f567-4b7b-b29f-1327e0b49b97/5x/segment19.ts to c:\work\work/segment19.ts
2021/08/09 11:43:10 Download https://tbs-video-cdn.tver.jp/media/v1/hls/v4/aes128/4031511847001/5ba33e88-2de3-4361-b8a2-472249944fbd/a0e62dbe-72ba-4187-a700-47c810cfd194/c7056166-f567-4b7b-b29f-1327e0b49b97/5x/segment20.ts to c:\work\work/segment20.ts
ffmpeg version 4.2.2 Copyright (c) 2000-2019 the FFmpeg developers
  built with gcc 9.2.1 (GCC) 20200122
  configuration: --enable-gpl --enable-version3 --enable-sdl2 --enable-fontconfig --enable-gnutls --enable-iconv --enable-libass --enable-libdav1d --enable-libbluray --enable-libfreetype --enable-libmp3lame --enable-libopencore-amrnb --enable-libopencore-amrwb --enable-libopenjpeg --enable-libopus --enable-libshine --enable-libsnappy --enable-libsoxr --enable-libtheora --enable-libtwolame --enable-libvpx --enable-libwavpack --enable-libwebp --enable-libx264 --enable-libx265 --enable-libxml2 --enable-libzimg --enable-lzma --enable-zlib --enable-gmp --enable-libvidstab --enable-libvorbis --enable-libvo-amrwbenc --enable-libmysofa --enable-libspeex --enable-libxvid --enable-libaom --enable-libmfx --enable-amf --enable-ffnvcodec --enable-cuvid --enable-d3d11va --enable-nvenc --enable-nvdec --enable-dxva2 --enable-avisynth --enable-libopenmpt
  libavutil      56. 31.100 / 56. 31.100
  libavcodec     58. 54.100 / 58. 54.100
  libavformat    58. 29.100 / 58. 29.100
  libavdevice    58.  8.100 / 58.  8.100
  libavfilter     7. 57.100 /  7. 57.100
  libswscale      5.  5.100 /  5.  5.100
  libswresample   3.  5.100 /  3.  5.100
  libpostproc    55.  5.100 / 55.  5.100
[hls @ 0000021fc225af80] Skip ('#EXT-X-VERSION:3')
[hls @ 0000021fc225af80] Opening 'c:\work\work/video.key' for reading
[hls @ 0000021fc225af80] Opening 'crypto:c:\work\work/segment0.ts' for reading
Input #0, hls, from 'c:\work\work/rw_video.m3u8':
  Duration: 00:03:23.67, start: 0.066733, bitrate: 0 kb/s
  Program 0 
    Metadata:
      variant_bitrate : 0
    Stream #0:0: Video: h264 (High) ([27][0][0][0] / 0x001B), yuv420p(tv, bt709), 1920x1080 [SAR 1:1 DAR 16:9], 29.97 fps, 29.97 tbr, 90k tbn, 59.94 tbc
    Metadata:
      variant_bitrate : 0
Output #0, mp4, to 'c:\work\work/video.mp4':
  Metadata:
    encoder         : Lavf58.29.100
    Stream #0:0: Video: h264 (High) (avc1 / 0x31637661), yuv420p(tv, bt709), 1920x1080 [SAR 1:1 DAR 16:9], q=2-31, 29.97 fps, 29.97 tbr, 90k tbn, 90k tbc
    Metadata:
      variant_bitrate : 0
Stream mapping:
  Stream #0:0 -> #0:0 (copy)
Press [q] to stop, [?] for help
[hls @ 0000021fc225af80] Opening 'crypto:c:\work\work/segment1.ts' for reading
[hls @ 0000021fc225af80] Opening 'crypto:c:\work\work/segment2.ts' for reading
[hls @ 0000021fc225af80] Opening 'crypto:c:\work\work/segment3.ts' for reading
[hls @ 0000021fc225af80] Opening 'crypto:c:\work\work/segment4.ts' for reading
[hls @ 0000021fc225af80] Opening 'crypto:c:\work\work/segment5.ts' for reading
[hls @ 0000021fc225af80] Opening 'crypto:c:\work\work/segment6.ts' for reading
[hls @ 0000021fc225af80] Opening 'crypto:c:\work\work/segment7.ts' for reading
[hls @ 0000021fc225af80] Opening 'crypto:c:\work\work/segment8.ts' for reading
[hls @ 0000021fc225af80] Opening 'crypto:c:\work\work/segment9.ts' for reading
[hls @ 0000021fc225af80] Opening 'crypto:c:\work\work/segment10.ts' for reading
[hls @ 0000021fc225af80] Opening 'crypto:c:\work\work/segment11.ts' for reading
[hls @ 0000021fc225af80] Opening 'crypto:c:\work\work/segment12.ts' for reading
frame= 3846 fps=0.0 q=-1.0 size=   37120kB time=00:02:08.22 bitrate=2371.5kbits/s speed= 256x    [hls @ 0000021fc225af80] Opening 'crypto:c:\work\work/segment13.ts' for reading
[hls @ 0000021fc225af80] Opening 'crypto:c:\work\work/segment14.ts' for reading
[hls @ 0000021fc225af80] Opening 'crypto:c:\work\work/segment15.ts' for reading
[hls @ 0000021fc225af80] Opening 'crypto:c:\work\work/segment16.ts' for reading
[hls @ 0000021fc225af80] Opening 'crypto:c:\work\work/segment17.ts' for reading
[hls @ 0000021fc225af80] Opening 'crypto:c:\work\work/segment18.ts' for reading
[hls @ 0000021fc225af80] Opening 'crypto:c:\work\work/segment19.ts' for reading
[hls @ 0000021fc225af80] Opening 'crypto:c:\work\work/segment20.ts' for reading
[mp4 @ 0000021fc2d96040] Starting second pass: moving the moov atom to the beginning of the file
frame= 6104 fps=0.0 q=-1.0 Lsize=   55294kB time=00:03:23.57 bitrate=2225.1kbits/s speed= 267x    
video:55216kB audio:0kB subtitle:0kB other streams:0kB global headers:0kB muxing overhead: 0.141619%
2021/08/09 11:43:11 Download https://tbs-video-cdn.tver.jp/media/v1/hls/v4/aes128/4031511847001/5ba33e88-2de3-4361-b8a2-472249944fbd/9b969f54-2ca9-4a96-8bd6-f663b7e9cdab/c7056166-f567-4b7b-b29f-1327e0b49b97/5x/segment0.ts to c:\work\work/segment0.ts
2021/08/09 11:43:11 Download https://tbs-video-cdn.tver.jp/media/v1/hls/v4/aes128/4031511847001/5ba33e88-2de3-4361-b8a2-472249944fbd/9b969f54-2ca9-4a96-8bd6-f663b7e9cdab/c7056166-f567-4b7b-b29f-1327e0b49b97/5x/segment1.ts to c:\work\work/segment1.ts
2021/08/09 11:43:11 Download https://tbs-video-cdn.tver.jp/media/v1/hls/v4/aes128/4031511847001/5ba33e88-2de3-4361-b8a2-472249944fbd/9b969f54-2ca9-4a96-8bd6-f663b7e9cdab/c7056166-f567-4b7b-b29f-1327e0b49b97/5x/segment2.ts to c:\work\work/segment2.ts
2021/08/09 11:43:11 Download https://tbs-video-cdn.tver.jp/media/v1/hls/v4/aes128/4031511847001/5ba33e88-2de3-4361-b8a2-472249944fbd/9b969f54-2ca9-4a96-8bd6-f663b7e9cdab/c7056166-f567-4b7b-b29f-1327e0b49b97/5x/segment3.ts to c:\work\work/segment3.ts
2021/08/09 11:43:11 Download https://tbs-video-cdn.tver.jp/media/v1/hls/v4/aes128/4031511847001/5ba33e88-2de3-4361-b8a2-472249944fbd/9b969f54-2ca9-4a96-8bd6-f663b7e9cdab/c7056166-f567-4b7b-b29f-1327e0b49b97/5x/segment4.ts to c:\work\work/segment4.ts
2021/08/09 11:43:11 Download https://tbs-video-cdn.tver.jp/media/v1/hls/v4/aes128/4031511847001/5ba33e88-2de3-4361-b8a2-472249944fbd/9b969f54-2ca9-4a96-8bd6-f663b7e9cdab/c7056166-f567-4b7b-b29f-1327e0b49b97/5x/segment5.ts to c:\work\work/segment5.ts
2021/08/09 11:43:11 Download https://tbs-video-cdn.tver.jp/media/v1/hls/v4/aes128/4031511847001/5ba33e88-2de3-4361-b8a2-472249944fbd/9b969f54-2ca9-4a96-8bd6-f663b7e9cdab/c7056166-f567-4b7b-b29f-1327e0b49b97/5x/segment6.ts to c:\work\work/segment6.ts
2021/08/09 11:43:11 Download https://tbs-video-cdn.tver.jp/media/v1/hls/v4/aes128/4031511847001/5ba33e88-2de3-4361-b8a2-472249944fbd/9b969f54-2ca9-4a96-8bd6-f663b7e9cdab/c7056166-f567-4b7b-b29f-1327e0b49b97/5x/segment7.ts to c:\work\work/segment7.ts
2021/08/09 11:43:11 Download https://tbs-video-cdn.tver.jp/media/v1/hls/v4/aes128/4031511847001/5ba33e88-2de3-4361-b8a2-472249944fbd/9b969f54-2ca9-4a96-8bd6-f663b7e9cdab/c7056166-f567-4b7b-b29f-1327e0b49b97/5x/segment8.ts to c:\work\work/segment8.ts
2021/08/09 11:43:11 Download https://tbs-video-cdn.tver.jp/media/v1/hls/v4/aes128/4031511847001/5ba33e88-2de3-4361-b8a2-472249944fbd/9b969f54-2ca9-4a96-8bd6-f663b7e9cdab/c7056166-f567-4b7b-b29f-1327e0b49b97/5x/segment9.ts to c:\work\work/segment9.ts
2021/08/09 11:43:12 Download https://tbs-video-cdn.tver.jp/media/v1/hls/v4/aes128/4031511847001/5ba33e88-2de3-4361-b8a2-472249944fbd/9b969f54-2ca9-4a96-8bd6-f663b7e9cdab/c7056166-f567-4b7b-b29f-1327e0b49b97/5x/segment10.ts to c:\work\work/segment10.ts
2021/08/09 11:43:12 Download https://tbs-video-cdn.tver.jp/media/v1/hls/v4/aes128/4031511847001/5ba33e88-2de3-4361-b8a2-472249944fbd/9b969f54-2ca9-4a96-8bd6-f663b7e9cdab/c7056166-f567-4b7b-b29f-1327e0b49b97/5x/segment11.ts to c:\work\work/segment11.ts
2021/08/09 11:43:12 Download https://tbs-video-cdn.tver.jp/media/v1/hls/v4/aes128/4031511847001/5ba33e88-2de3-4361-b8a2-472249944fbd/9b969f54-2ca9-4a96-8bd6-f663b7e9cdab/c7056166-f567-4b7b-b29f-1327e0b49b97/5x/segment12.ts to c:\work\work/segment12.ts
2021/08/09 11:43:12 Download https://tbs-video-cdn.tver.jp/media/v1/hls/v4/aes128/4031511847001/5ba33e88-2de3-4361-b8a2-472249944fbd/9b969f54-2ca9-4a96-8bd6-f663b7e9cdab/c7056166-f567-4b7b-b29f-1327e0b49b97/5x/segment13.ts to c:\work\work/segment13.ts
2021/08/09 11:43:12 Download https://tbs-video-cdn.tver.jp/media/v1/hls/v4/aes128/4031511847001/5ba33e88-2de3-4361-b8a2-472249944fbd/9b969f54-2ca9-4a96-8bd6-f663b7e9cdab/c7056166-f567-4b7b-b29f-1327e0b49b97/5x/segment14.ts to c:\work\work/segment14.ts
2021/08/09 11:43:12 Download https://tbs-video-cdn.tver.jp/media/v1/hls/v4/aes128/4031511847001/5ba33e88-2de3-4361-b8a2-472249944fbd/9b969f54-2ca9-4a96-8bd6-f663b7e9cdab/c7056166-f567-4b7b-b29f-1327e0b49b97/5x/segment15.ts to c:\work\work/segment15.ts
2021/08/09 11:43:12 Download https://tbs-video-cdn.tver.jp/media/v1/hls/v4/aes128/4031511847001/5ba33e88-2de3-4361-b8a2-472249944fbd/9b969f54-2ca9-4a96-8bd6-f663b7e9cdab/c7056166-f567-4b7b-b29f-1327e0b49b97/5x/segment16.ts to c:\work\work/segment16.ts
2021/08/09 11:43:12 Download https://tbs-video-cdn.tver.jp/media/v1/hls/v4/aes128/4031511847001/5ba33e88-2de3-4361-b8a2-472249944fbd/9b969f54-2ca9-4a96-8bd6-f663b7e9cdab/c7056166-f567-4b7b-b29f-1327e0b49b97/5x/segment17.ts to c:\work\work/segment17.ts
2021/08/09 11:43:12 Download https://tbs-video-cdn.tver.jp/media/v1/hls/v4/aes128/4031511847001/5ba33e88-2de3-4361-b8a2-472249944fbd/9b969f54-2ca9-4a96-8bd6-f663b7e9cdab/c7056166-f567-4b7b-b29f-1327e0b49b97/5x/segment18.ts to c:\work\work/segment18.ts
2021/08/09 11:43:12 Download https://tbs-video-cdn.tver.jp/media/v1/hls/v4/aes128/4031511847001/5ba33e88-2de3-4361-b8a2-472249944fbd/9b969f54-2ca9-4a96-8bd6-f663b7e9cdab/c7056166-f567-4b7b-b29f-1327e0b49b97/5x/segment19.ts to c:\work\work/segment19.ts
2021/08/09 11:43:12 Download https://tbs-video-cdn.tver.jp/media/v1/hls/v4/aes128/4031511847001/5ba33e88-2de3-4361-b8a2-472249944fbd/9b969f54-2ca9-4a96-8bd6-f663b7e9cdab/c7056166-f567-4b7b-b29f-1327e0b49b97/5x/segment20.ts to c:\work\work/segment20.ts
ffmpeg version 4.2.2 Copyright (c) 2000-2019 the FFmpeg developers
  built with gcc 9.2.1 (GCC) 20200122
  configuration: --enable-gpl --enable-version3 --enable-sdl2 --enable-fontconfig --enable-gnutls --enable-iconv --enable-libass --enable-libdav1d --enable-libbluray --enable-libfreetype --enable-libmp3lame --enable-libopencore-amrnb --enable-libopencore-amrwb --enable-libopenjpeg --enable-libopus --enable-libshine --enable-libsnappy --enable-libsoxr --enable-libtheora --enable-libtwolame --enable-libvpx --enable-libwavpack --enable-libwebp --enable-libx264 --enable-libx265 --enable-libxml2 --enable-libzimg --enable-lzma --enable-zlib --enable-gmp --enable-libvidstab --enable-libvorbis --enable-libvo-amrwbenc --enable-libmysofa --enable-libspeex --enable-libxvid --enable-libaom --enable-libmfx --enable-amf --enable-ffnvcodec --enable-cuvid --enable-d3d11va --enable-nvenc --enable-nvdec --enable-dxva2 --enable-avisynth --enable-libopenmpt
  libavutil      56. 31.100 / 56. 31.100
  libavcodec     58. 54.100 / 58. 54.100
  libavformat    58. 29.100 / 58. 29.100
  libavdevice    58.  8.100 / 58.  8.100
  libavfilter     7. 57.100 /  7. 57.100
  libswscale      5.  5.100 /  5.  5.100
  libswresample   3.  5.100 /  3.  5.100
  libpostproc    55.  5.100 / 55.  5.100
[hls @ 0000014d8b1aae80] Skip ('#EXT-X-VERSION:3')
[hls @ 0000014d8b1aae80] Opening 'c:\work\work/audio.key' for reading
[hls @ 0000014d8b1aae80] Opening 'crypto:c:\work\work/segment0.ts' for reading
Input #0, hls, from 'c:\work\work/rw_audio.m3u8':
  Duration: 00:03:23.76, start: 0.000000, bitrate: 0 kb/s
  Program 0 
    Metadata:
      variant_bitrate : 0
    Stream #0:0: Audio: aac (LC) ([15][0][0][0] / 0x000F), 48000 Hz, stereo, fltp
    Metadata:
      variant_bitrate : 0
Output #0, mp4, to 'c:\work\work/audio.mp4':
  Metadata:
    encoder         : Lavf58.29.100
    Stream #0:0: Audio: aac (LC) (mp4a / 0x6134706D), 48000 Hz, stereo, fltp
    Metadata:
      variant_bitrate : 0
Stream mapping:
  Stream #0:0 -> #0:0 (copy)
Press [q] to stop, [?] for help
[hls @ 0000014d8b1aae80] Opening 'crypto:c:\work\work/segment1.ts' for reading
[hls @ 0000014d8b1aae80] Opening 'crypto:c:\work\work/segment2.ts' for reading
[hls @ 0000014d8b1aae80] Opening 'crypto:c:\work\work/segment3.ts' for reading
[hls @ 0000014d8b1aae80] Opening 'crypto:c:\work\work/segment4.ts' for reading
[hls @ 0000014d8b1aae80] Opening 'crypto:c:\work\work/segment5.ts' for reading
[hls @ 0000014d8b1aae80] Opening 'crypto:c:\work\work/segment6.ts' for reading
[hls @ 0000014d8b1aae80] Opening 'crypto:c:\work\work/segment7.ts' for reading
[hls @ 0000014d8b1aae80] Opening 'crypto:c:\work\work/segment8.ts' for reading
[hls @ 0000014d8b1aae80] Opening 'crypto:c:\work\work/segment9.ts' for reading
[hls @ 0000014d8b1aae80] Opening 'crypto:c:\work\work/segment10.ts' for reading
[hls @ 0000014d8b1aae80] Opening 'crypto:c:\work\work/segment11.ts' for reading
[hls @ 0000014d8b1aae80] Opening 'crypto:c:\work\work/segment12.ts' for reading
[hls @ 0000014d8b1aae80] Opening 'crypto:c:\work\work/segment13.ts' for reading
[hls @ 0000014d8b1aae80] Opening 'crypto:c:\work\work/segment14.ts' for reading
[hls @ 0000014d8b1aae80] Opening 'crypto:c:\work\work/segment15.ts' for reading
[hls @ 0000014d8b1aae80] Opening 'crypto:c:\work\work/segment16.ts' for reading
[hls @ 0000014d8b1aae80] Opening 'crypto:c:\work\work/segment17.ts' for reading
[hls @ 0000014d8b1aae80] Opening 'crypto:c:\work\work/segment18.ts' for reading
[hls @ 0000014d8b1aae80] Opening 'crypto:c:\work\work/segment19.ts' for reading
[hls @ 0000014d8b1aae80] Opening 'crypto:c:\work\work/segment20.ts' for reading
[mp4 @ 0000014d8b1b3300] Starting second pass: moving the moov atom to the beginning of the file
size=    4803kB time=00:03:23.73 bitrate= 193.1kbits/s speed=1.91e+03x    
video:0kB audio:4830kB subtitle:0kB other streams:0kB global headers:0kB muxing overhead: unknown
ffmpeg version 4.2.2 Copyright (c) 2000-2019 the FFmpeg developers
  built with gcc 9.2.1 (GCC) 20200122
  configuration: --enable-gpl --enable-version3 --enable-sdl2 --enable-fontconfig --enable-gnutls --enable-iconv --enable-libass --enable-libdav1d --enable-libbluray --enable-libfreetype --enable-libmp3lame --enable-libopencore-amrnb --enable-libopencore-amrwb --enable-libopenjpeg --enable-libopus --enable-libshine --enable-libsnappy --enable-libsoxr --enable-libtheora --enable-libtwolame --enable-libvpx --enable-libwavpack --enable-libwebp --enable-libx264 --enable-libx265 --enable-libxml2 --enable-libzimg --enable-lzma --enable-zlib --enable-gmp --enable-libvidstab --enable-libvorbis --enable-libvo-amrwbenc --enable-libmysofa --enable-libspeex --enable-libxvid --enable-libaom --enable-libmfx --enable-amf --enable-ffnvcodec --enable-cuvid --enable-d3d11va --enable-nvenc --enable-nvdec --enable-dxva2 --enable-avisynth --enable-libopenmpt
  libavutil      56. 31.100 / 56. 31.100
  libavcodec     58. 54.100 / 58. 54.100
  libavformat    58. 29.100 / 58. 29.100
  libavdevice    58.  8.100 / 58.  8.100
  libavfilter     7. 57.100 /  7. 57.100
  libswscale      5.  5.100 /  5.  5.100
  libswresample   3.  5.100 /  3.  5.100
  libpostproc    55.  5.100 / 55.  5.100
Input #0, mov,mp4,m4a,3gp,3g2,mj2, from 'c:\work\work/video.mp4':
  Metadata:
    major_brand     : isom
    minor_version   : 512
    compatible_brands: isomiso2avc1mp41
    encoder         : Lavf58.29.100
  Duration: 00:03:23.67, start: 0.000000, bitrate: 2224 kb/s
    Stream #0:0(und): Video: h264 (High) (avc1 / 0x31637661), yuv420p(tv, bt709), 1920x1080 [SAR 1:1 DAR 16:9], 2221 kb/s, 29.97 fps, 29.97 tbr, 90k tbn, 59.94 tbc (default)
    Metadata:
      handler_name    : VideoHandler
Input #1, mov,mp4,m4a,3gp,3g2,mj2, from 'c:\work\work/audio.mp4':
  Metadata:
    major_brand     : isom
    minor_version   : 512
    compatible_brands: isomiso2mp41
    encoder         : Lavf58.29.100
  Duration: 00:03:23.76, start: 0.000000, bitrate: 193 kb/s
    Stream #1:0(und): Audio: aac (LC) (mp4a / 0x6134706D), 48000 Hz, stereo, fltp, 191 kb/s (default)
    Metadata:
      handler_name    : SoundHandler
Stream mapping:
  Stream #0:0 -> #0:0 (copy)
  Stream #1:0 -> #0:1 (aac (native) -> aac (native))
Press [q] to stop, [?] for help
Output #0, mp4, to 'c:\work\download/東大王夏休みスペシャル 毎日解こう!頭のラジオ体操クイズ!｜民放公式テレビポータル「TVer（ティーバー）」 - 【15日目】河野ゆかりからの超難問.mp4':
  Metadata:
    major_brand     : isom
    minor_version   : 512
    compatible_brands: isomiso2avc1mp41
    encoder         : Lavf58.29.100
    Stream #0:0(und): Video: h264 (High) (avc1 / 0x31637661), yuv420p(tv, bt709), 1920x1080 [SAR 1:1 DAR 16:9], q=2-31, 2221 kb/s, 29.97 fps, 29.97 tbr, 90k tbn, 90k tbc (default)
    Metadata:
      handler_name    : VideoHandler
    Stream #0:1(und): Audio: aac (LC) (mp4a / 0x6134706D), 48000 Hz, stereo, fltp, 128 kb/s (default)
    Metadata:
      handler_name    : SoundHandler
      encoder         : Lavc58.54.100 aac
frame= 1060 fps=0.0 q=-1.0 size=    9472kB time=00:00:35.30 bitrate=2197.7kbits/s speed=70.5x    frame= 2088 fps=2084 q=-1.0 size=   19456kB time=00:01:09.56 bitrate=2291.0kbits/s speed=69.4x    frame= 3116 fps=2074 q=-1.0 size=   29696kB time=00:01:43.87 bitrate=2342.0kbits/s speed=69.1x    frame= 4209 fps=2101 q=-1.0 size=   42240kB time=00:02:20.34 bitrate=2465.7kbits/s speed=  70x    frame= 5241 fps=2093 q=-1.0 size=   50432kB time=00:02:54.77 bitrate=2363.8kbits/s speed=69.8x    frame= 6104 fps=2087 q=-1.0 Lsize=   58600kB time=00:03:23.75 bitrate=2356.0kbits/s speed=69.7x    
video:55222kB audio:3159kB subtitle:0kB other streams:0kB global headers:0kB muxing overhead: 0.375609%
[aac @ 0000025bf30700c0] Qavg: 1188.532
